<svg width="174" height="34" viewBox="0 0 174 34" fill="none" xmlns="http://www.w3.org/2000/svg">
<path d="M151.499 33.65C150.206 33.65 149.152 33.2967 148.339 32.59C147.526 31.8967 147.119 31.0433 147.119 30.03C147.119 29.0033 147.406 28.15 147.979 27.47C148.552 26.8033 149.399 26.29 150.519 25.93C151.052 25.7567 151.646 25.5567 152.299 25.33C152.952 25.1033 153.572 24.8433 154.159 24.55C154.759 24.2567 155.246 23.9433 155.619 23.61C156.006 23.2633 156.199 22.8967 156.199 22.51C156.199 22.1767 155.966 21.85 155.499 21.53C155.046 21.21 154.179 20.8433 152.899 20.43C151.926 20.1233 151.006 19.7767 150.139 19.39C149.272 19.0033 148.479 18.5767 147.759 18.11C147.052 17.63 146.439 17.1033 145.919 16.53C145.399 15.9433 144.992 15.3033 144.699 14.61C144.419 13.9167 144.279 13.1633 144.279 12.35C144.279 11.35 144.512 10.4433 144.979 9.63C145.459 8.80334 146.112 8.15 146.939 7.67C147.779 7.19 148.739 6.95 149.819 6.95C151.326 6.95 152.592 7.21667 153.619 7.75C154.659 8.27 155.546 9.07667 156.279 10.17C156.759 10.89 157.112 11.57 157.339 12.21C157.566 12.8367 157.839 13.37 158.159 13.81C158.386 14.1033 158.632 14.3433 158.899 14.53C159.166 14.7167 159.426 14.81 159.679 14.81C160.066 14.81 160.412 14.67 160.719 14.39C161.026 14.0967 161.246 13.7433 161.379 13.33C161.566 12.77 161.826 12.0633 162.159 11.21C162.506 10.3433 162.859 9.66334 163.219 9.17C163.739 8.45 164.399 7.85667 165.199 7.39C166.012 6.92334 167.012 6.69 168.199 6.69C170.172 6.69 171.546 7.16334 172.319 8.11C173.106 9.05667 173.499 10.31 173.499 11.87C173.499 12.5367 173.372 13.2767 173.119 14.09C172.879 14.9033 172.546 15.7567 172.119 16.65C171.706 17.5433 171.232 18.4367 170.699 19.33C170.179 20.2233 169.632 21.0833 169.059 21.91C168.486 22.7367 167.926 23.4967 167.379 24.19C166.299 25.55 165.159 26.8033 163.959 27.95C162.772 29.11 161.519 30.1167 160.199 30.97C158.892 31.8233 157.512 32.4833 156.059 32.95C154.619 33.4167 153.099 33.65 151.499 33.65Z" fill="#03A59B"/>
<path d="M126.975 25.59C126.148 25.59 125.415 25.4966 124.775 25.31C124.148 25.1233 123.595 24.8633 123.115 24.53C122.648 24.1833 122.228 23.7766 121.855 23.31C121.468 22.8166 121.128 22.27 120.835 21.67C120.542 21.0566 120.295 20.41 120.095 19.73C119.908 19.0366 119.762 18.3166 119.655 17.57C119.562 16.8233 119.515 16.07 119.515 15.31C119.515 13.0433 120.055 11.11 121.135 9.50998C122.215 7.89665 123.695 6.66331 125.575 5.80998C127.468 4.94331 129.622 4.50998 132.035 4.50998C133.275 4.50998 134.495 4.61665 135.695 4.82998C136.908 5.04331 138.002 5.37665 138.975 5.82998C139.948 6.28331 140.728 6.86998 141.315 7.58998C141.902 8.29665 142.195 9.14998 142.195 10.15C142.195 11.1366 141.995 11.9033 141.595 12.45C141.208 12.9966 140.702 13.3766 140.075 13.59C139.462 13.79 138.822 13.89 138.155 13.89C137.235 13.89 136.442 13.8033 135.775 13.63C135.108 13.4566 134.388 13.37 133.615 13.37C133.042 13.37 132.542 13.5233 132.115 13.83C131.688 14.1233 131.475 14.6766 131.475 15.49C131.475 15.8366 131.488 16.1833 131.515 16.53C131.555 16.8633 131.602 17.1966 131.655 17.53C131.708 17.85 131.762 18.1766 131.815 18.51C131.868 18.8433 131.908 19.17 131.935 19.49C131.975 19.81 131.995 20.1366 131.995 20.47C131.995 22.1633 131.595 23.4433 130.795 24.31C130.008 25.1633 128.735 25.59 126.975 25.59Z" fill="#03A59B"/>
<path d="M102.194 26.21C99.9538 26.21 97.9338 25.9633 96.1338 25.47C94.3471 24.99 92.8205 24.2567 91.5538 23.27C90.2871 22.27 89.3138 20.9967 88.6338 19.45C87.9671 17.9033 87.6338 16.07 87.6338 13.95C87.6338 13.3633 87.6671 12.7967 87.7338 12.25C87.8138 11.7033 87.9271 11.1833 88.0738 10.69C88.2338 10.1967 88.4205 9.73667 88.6338 9.31001C89.1805 8.24334 89.9405 7.40334 90.9138 6.79001C91.9005 6.16334 93.0805 5.85001 94.4538 5.85001C95.8138 5.85001 96.8271 6.05001 97.4938 6.45001C98.1738 6.85001 98.6271 7.34334 98.8538 7.93001C99.0938 8.51667 99.2271 9.08334 99.2538 9.63001C99.2805 9.97667 99.3005 10.31 99.3138 10.63C99.3405 10.9367 99.3671 11.2367 99.3938 11.53C99.4205 11.81 99.4471 12.0833 99.4738 12.35C99.5138 12.6033 99.5538 12.85 99.5938 13.09C99.7538 13.97 99.9538 14.67 100.194 15.19C100.447 15.71 100.76 16.09 101.134 16.33C101.52 16.5567 101.98 16.67 102.514 16.67C102.86 16.67 103.2 16.5833 103.534 16.41C103.88 16.2367 104.194 15.93 104.474 15.49C104.767 15.05 105.007 14.4367 105.194 13.65C105.287 13.2767 105.354 12.9167 105.394 12.57C105.447 12.21 105.487 11.8633 105.514 11.53C105.554 11.1833 105.607 10.8433 105.674 10.51C105.74 10.1767 105.834 9.84334 105.954 9.51001C106.3 8.60334 106.874 7.85667 107.674 7.27001C108.487 6.68334 109.64 6.39001 111.134 6.39001C112.454 6.39001 113.467 6.72334 114.174 7.39001C114.894 8.04334 115.414 8.91667 115.734 10.01C115.827 10.3433 115.907 10.6967 115.974 11.07C116.04 11.4433 116.087 11.8367 116.114 12.25C116.154 12.65 116.18 13.0633 116.194 13.49C116.22 13.9167 116.234 14.35 116.234 14.79C116.234 17.5633 115.627 19.79 114.414 21.47C113.2 23.1367 111.534 24.3433 109.414 25.09C107.307 25.8367 104.9 26.21 102.194 26.21Z" fill="#03A59B"/>
<path d="M63.2013 26.53C62.2813 26.53 61.4013 26.3966 60.5613 26.13C59.7346 25.8766 59.0613 25.43 58.5413 24.79C58.0213 24.1633 57.7613 23.2833 57.7613 22.15C57.7613 21.5366 57.8413 20.9766 58.0013 20.47C58.1746 19.95 58.4213 19.4833 58.7413 19.07C59.0746 18.63 59.4746 18.2433 59.9413 17.91C60.4213 17.5633 60.9546 17.27 61.5413 17.03C62.1279 16.79 62.7546 16.5966 63.4213 16.45C63.9146 16.3433 64.4079 16.2233 64.9013 16.09C65.4079 15.9433 65.8279 15.79 66.1613 15.63C66.5079 15.4566 66.6813 15.2766 66.6813 15.09C66.6813 14.9033 66.4813 14.7433 66.0813 14.61C65.6813 14.4633 65.1813 14.3433 64.5813 14.25C63.9946 14.1433 63.3946 14.0633 62.7813 14.01C62.0079 13.93 61.2946 13.77 60.6413 13.53C59.9879 13.29 59.4146 12.97 58.9213 12.57C58.3879 12.13 57.9746 11.5966 57.6813 10.97C57.3879 10.33 57.2413 9.60331 57.2413 8.78998C57.2413 7.92331 57.4879 7.12998 57.9813 6.40998C58.4746 5.68998 59.1479 5.10998 60.0013 4.66998C60.8546 4.22998 61.8213 4.00998 62.9013 4.00998C63.5679 4.00998 64.2013 4.08998 64.8013 4.24998C65.4013 4.40998 65.9679 4.64331 66.5013 4.94998C67.2479 5.36331 67.9279 5.88998 68.5413 6.52998C69.1546 7.16998 69.6879 7.88331 70.1413 8.66998C70.5013 9.28331 70.8346 9.80331 71.1413 10.23C71.4479 10.6566 71.7079 10.87 71.9213 10.87C72.0413 10.87 72.1813 10.7833 72.3413 10.61C72.5013 10.4233 72.6813 10.1766 72.8813 9.86998C73.0946 9.56331 73.3146 9.22331 73.5413 8.84998C73.9279 8.22331 74.3746 7.65665 74.8813 7.14998C75.4013 6.64331 75.9679 6.21665 76.5813 5.86998C77.2213 5.49665 77.9013 5.21665 78.6213 5.02998C79.3546 4.82998 80.1213 4.72998 80.9213 4.72998C82.4279 4.72998 83.6213 5.12331 84.5013 5.90998C85.3813 6.69665 85.8213 7.78331 85.8213 9.16998C85.8213 10.13 85.6346 10.9633 85.2613 11.67C84.8879 12.3633 84.3679 12.9233 83.7013 13.35C83.2879 13.6166 82.8346 13.83 82.3413 13.99C81.8479 14.15 81.3079 14.2633 80.7213 14.33C80.0679 14.3966 79.5079 14.4633 79.0413 14.53C78.5746 14.5966 78.2213 14.67 77.9813 14.75C77.7413 14.8166 77.6213 14.8966 77.6213 14.99C77.6213 15.1233 77.9946 15.2766 78.7413 15.45C79.4879 15.6233 80.4479 15.8033 81.6213 15.99C82.0479 16.0566 82.4413 16.15 82.8013 16.27C83.1746 16.3766 83.5146 16.5166 83.8213 16.69C84.1413 16.85 84.4213 17.0366 84.6613 17.25C85.1413 17.6633 85.5013 18.17 85.7413 18.77C85.9946 19.37 86.1213 20.07 86.1213 20.87C86.1213 21.7233 85.9346 22.45 85.5613 23.05C85.2013 23.6366 84.7213 24.11 84.1213 24.47C83.5346 24.83 82.8879 25.09 82.1813 25.25C81.4746 25.41 80.7879 25.49 80.1213 25.49C79.3479 25.49 78.6013 25.3633 77.8813 25.11C77.1746 24.87 76.5146 24.4966 75.9013 23.99C75.4879 23.6433 75.0946 23.2366 74.7213 22.77C74.3613 22.29 74.0213 21.75 73.7013 21.15C73.5546 20.8566 73.3346 20.4966 73.0413 20.07C72.7613 19.63 72.4413 19.41 72.0813 19.41C71.8413 19.41 71.6013 19.5033 71.3613 19.69C71.1346 19.8766 70.8946 20.1833 70.6413 20.61C70.4013 21.0233 70.1279 21.5833 69.8213 22.29C69.6346 22.7433 69.4079 23.17 69.1413 23.57C68.8879 23.97 68.5946 24.33 68.2613 24.65C67.9413 24.9833 67.5746 25.2766 67.1613 25.53C66.6279 25.85 66.0346 26.0966 65.3813 26.27C64.7279 26.4433 64.0013 26.53 63.2013 26.53Z" fill="#03A59B"/>
<path d="M41.1 26.21C38.86 26.21 36.84 25.9633 35.04 25.47C33.2534 24.99 31.7267 24.2567 30.46 23.27C29.1934 22.27 28.22 20.9967 27.54 19.45C26.8734 17.9033 26.54 16.07 26.54 13.95C26.54 13.3633 26.5734 12.7967 26.64 12.25C26.72 11.7033 26.8334 11.1833 26.98 10.69C27.14 10.1967 27.3267 9.73667 27.54 9.31001C28.0867 8.24334 28.8467 7.40334 29.82 6.79001C30.8067 6.16334 31.9867 5.85001 33.36 5.85001C34.72 5.85001 35.7334 6.05001 36.4 6.45001C37.08 6.85001 37.5334 7.34334 37.76 7.93001C38 8.51667 38.1334 9.08334 38.16 9.63001C38.1867 9.97667 38.2067 10.31 38.22 10.63C38.2467 10.9367 38.2734 11.2367 38.3 11.53C38.3267 11.81 38.3534 12.0833 38.38 12.35C38.42 12.6033 38.46 12.85 38.5 13.09C38.66 13.97 38.86 14.67 39.1 15.19C39.3534 15.71 39.6667 16.09 40.04 16.33C40.4267 16.5567 40.8867 16.67 41.42 16.67C41.7667 16.67 42.1067 16.5833 42.44 16.41C42.7867 16.2367 43.1 15.93 43.38 15.49C43.6734 15.05 43.9134 14.4367 44.1 13.65C44.1934 13.2767 44.26 12.9167 44.3 12.57C44.3534 12.21 44.3934 11.8633 44.42 11.53C44.46 11.1833 44.5134 10.8433 44.58 10.51C44.6467 10.1767 44.74 9.84334 44.86 9.51001C45.2067 8.60334 45.78 7.85667 46.58 7.27001C47.3934 6.68334 48.5467 6.39001 50.04 6.39001C51.36 6.39001 52.3734 6.72334 53.08 7.39001C53.8 8.04334 54.32 8.91667 54.64 10.01C54.7334 10.3433 54.8134 10.6967 54.88 11.07C54.9467 11.4433 54.9934 11.8367 55.02 12.25C55.06 12.65 55.0867 13.0633 55.1 13.49C55.1267 13.9167 55.14 14.35 55.14 14.79C55.14 17.5633 54.5334 19.79 53.32 21.47C52.1067 23.1367 50.44 24.3433 48.32 25.09C46.2134 25.8367 43.8067 26.21 41.1 26.21Z" fill="#03A59B"/>
<path d="M6.98 26.09C4.36667 25.65 2.54667 24.69 1.52 23.21C0.506667 21.73 0 19.7233 0 17.19C0 16.6567 0.0200001 16.0833 0.0600002 15.47C0.113334 14.8433 0.173334 14.2033 0.24 13.55C0.32 12.8833 0.413334 12.2233 0.52 11.57C0.626667 10.9033 0.74 10.27 0.86 9.67001C0.98 9.05667 1.1 8.49667 1.22 7.99001C1.76667 5.72334 2.63333 3.88334 3.82 2.47001C5.00667 1.05667 6.56667 0.350006 8.5 0.350006C9.84667 0.350006 10.84 0.603339 11.48 1.11001C12.1333 1.60334 12.56 2.29667 12.76 3.19001C12.96 4.07001 13.06 5.09667 13.06 6.27001C13.06 6.59001 13.06 6.91001 13.06 7.23001C13.06 7.53667 13.06 7.84334 13.06 8.15001C13.0733 8.45667 13.0867 8.76334 13.1 9.07001C13.1133 9.36334 13.1267 9.65001 13.14 9.93001C13.1667 10.21 13.1933 10.49 13.22 10.77C13.2467 11.0367 13.28 11.2967 13.32 11.55C13.3867 11.9233 13.48 12.27 13.6 12.59C13.7333 12.8967 13.9 13.17 14.1 13.41C14.3133 13.65 14.56 13.8433 14.84 13.99C15.12 14.1233 15.44 14.21 15.8 14.25C17.0267 14.3833 18.1733 14.5433 19.24 14.73C20.3067 14.9167 21.1667 15.0967 21.82 15.27C22.1267 15.35 22.5 15.4767 22.94 15.65C23.38 15.8233 23.7533 16.0433 24.06 16.31C24.38 16.59 24.62 16.9433 24.78 17.37C24.9533 17.7833 25.04 18.33 25.04 19.01C25.04 20.1967 24.7533 21.21 24.18 22.05C23.6067 22.8767 22.8733 23.5633 21.98 24.11C21.0867 24.6567 20.1467 25.09 19.16 25.41C18.3067 25.69 17.24 25.91 15.96 26.07C14.6933 26.2433 13.4133 26.33 12.12 26.33C11.4667 26.33 10.8267 26.3233 10.2 26.31C9.58667 26.31 9.00667 26.29 8.46 26.25C7.91333 26.21 7.42 26.1567 6.98 26.09Z" fill="#03A59B"/>
</svg>
